<svg xmlns="http://www.w3.org/2000/svg" xmlns:xlink="http://www.w3.org/1999/xlink" width="545" zoomAndPan="magnify" viewBox="0 0 408.75 225" height="300" preserveAspectRatio="xMidYMid meet" version="1.0"><defs><clipPath id="3e18761c79"><path d="M 4.773438 0.0703125 L 403.53125 0.0703125 L 403.53125 224.929688 L 4.773438 224.929688 Z M 4.773438 0.0703125 " clip-rule="nonzero"/></clipPath></defs><g clip-path="url(#3e18761c79)"><path fill="#ffce00" d="M 403.71875 34.042969 L 403.71875 192.074219 C 403.640625 192.074219 403.558594 192.074219 403.480469 192.074219 C 385.371094 192.074219 370.691406 206.671875 370.535156 224.78125 L 38.757812 224.78125 C 38.597656 206.671875 23.921875 192.074219 5.8125 192.074219 C 5.492188 192.074219 5.175781 192.152344 4.773438 192.152344 L 4.773438 34.042969 C 5.09375 34.042969 5.414062 34.125 5.8125 34.125 C 24 34.125 38.757812 19.367188 38.757812 1.175781 C 38.757812 0.859375 38.679688 0.539062 38.679688 0.21875 L 370.535156 0.21875 C 370.535156 0.539062 370.453125 0.859375 370.453125 1.175781 C 370.453125 19.367188 385.210938 34.125 403.398438 34.125 C 403.558594 34.042969 403.640625 34.042969 403.71875 34.042969 Z M 403.71875 34.042969 " fill-opacity="1" fill-rule="nonzero"/></g></svg>